#N canvas 0 25 1440 777 12;
#X obj 147 538 hsl 128 15 0 127 0 0 oscilator empty oscilator -2 -8
0 10 -159808 -1 -1 6000 1;
#X obj 56 191 mtof;
#X obj 572 715 tabwrite~ sine;
#X obj 623 663 metro 100;
#N canvas 0 50 450 250 (subpatch) 0;
#X array sine 100 float 3;
#A 0 -0.167138 -0.153634 -0.139917 -0.126006 -0.111921 -0.0976811 -0.0833063
-0.0688162 -0.054231 -0.039571 -0.0248563 -0.0101074 0.00465532 0.0194114
0.0341404 0.048822 0.0634358 0.0779616 0.0923792 0.106669 0.120811
0.134785 0.148573 0.162155 0.175512 0.188626 0.201479 0.214053 0.22633
0.238294 0.249928 0.261216 0.272142 0.282691 0.292849 0.302602 0.311935
0.320837 0.329294 0.337296 0.34483 0.351887 0.358456 0.36453 0.370098
0.375154 0.379691 0.383701 0.38718 0.390123 0.392526 0.394385 0.395698
0.396462 0.396678 0.396343 0.39546 0.394028 0.392051 0.38953 0.386469
0.382873 0.378746 0.374093 0.368922 0.363239 0.357053 0.350371 0.343203
0.335559 0.327449 0.318884 0.309877 0.300439 0.290584 0.280326 0.269677
0.258655 0.247272 0.235545 0.223491 0.211126 0.198467 0.185531 0.172337
0.158903 0.145247 0.131388 0.117346 0.10314 0.0887892 0.0743141 0.0597346
0.045071 0.0303436 0.0155729 0.000779354 -0.0140164 -0.0287939 -0.0435324
;
#X coords 0 -1 100 1 200 140 1 0 0;
#X restore 134 711 graph;
#X obj 624 626 tgl 15 0 empty empty empty 17 7 0 10 -262144 -1 -1 1
1;
#X obj 147 567 hsl 128 15 0 127 0 0 phasor empty phasor -2 -8 0 10
-159808 -1 -1 9100 1;
#X obj 213 200 mtof;
#X obj 59 226 osc~;
#X obj 211 248 phasor~;
#X obj 69 434 *~;
#X obj 514 624 dac~;
#X obj 319 581 vsl 20 50 0 0.5 0 0 volume empty volume 0 -9 0 10 -159808
-1 -1 4900 1;
#X obj 513 662 env~;
#X obj 515 713 - 100;
#X obj 361 726 vu 15 120 empty empty -1 -8 0 10 -66577 -1 1 0;
#N canvas 162 102 1091 785 filter 0;
#X obj 536 155 pack 0 10;
#X obj 536 177 line~;
#X obj 536 133 / 127;
#X obj 536 199 +~;
#X obj 333 63 / 127;
#X obj 333 128 pack 0 50;
#X obj 333 150 line~;
#X obj 333 106 * 0.99;
#X obj 501 643 clip~ -1 1;
#X obj 536 243 lop~ 10;
#X obj 396 102 * 2;
#X obj 536 275 s~ \$0-ladder-cutoff;
#X obj 303 5 inlet~;
#X obj 333 85 t f f;
#X obj 501 745 outlet~;
#X obj 396 124 + 1;
#X obj 396 148 s \$0-ladder-q-mess;
#X obj 536 22 r \$0-ladder-freq-s;
#X obj 780 53 inlet~ FREQ CV INPUT;
#X obj 333 43 r \$0-ladder-q-s;
#X obj 303 336 vcf~ 1;
#X obj 318 232 *~;
#X obj 303 264 +~;
#X obj 319 287 r~ \$0-ladder-cutoff;
#X obj 318 210 r~ \$0-ladder-Q;
#X obj 336 309 r \$0-ladder-q-mess;
#X obj 336 380 vcf~ 1;
#X obj 352 331 r~ \$0-ladder-cutoff;
#X obj 369 353 r \$0-ladder-q-mess;
#X obj 369 427 vcf~ 1;
#X obj 385 378 r~ \$0-ladder-cutoff;
#X obj 402 400 r \$0-ladder-q-mess;
#X obj 402 471 vcf~ 1;
#X obj 418 422 r~ \$0-ladder-cutoff;
#X obj 435 444 r \$0-ladder-q-mess;
#X obj 435 515 vcf~ 1;
#X obj 451 466 r~ \$0-ladder-cutoff;
#X obj 468 488 r \$0-ladder-q-mess;
#X obj 468 559 vcf~ 1;
#X obj 484 510 r~ \$0-ladder-cutoff;
#X obj 501 532 r \$0-ladder-q-mess;
#X obj 577 638 s~ \$0-ladder-Q;
#X obj 577 576 *~ 2;
#X obj 501 591 *~ 2;
#X obj 536 44 t f f;
#X obj 839 178 / 127;
#X obj 839 200 * 3;
#X obj 839 222 + 1;
#X floatatom 839 244 5 0 0 0 - - -;
#X obj 501 613 *~;
#X obj 839 263 pack 0 50;
#X obj 839 285 line~;
#X obj 536 221 *~ 5000;
#X obj 577 598 *~ -1;
#X obj 680 377 vcf~ 1;
#X obj 713 350 r \$0-ladder-q-mess;
#X obj 713 421 vcf~ 1;
#X obj 746 394 r \$0-ladder-q-mess;
#X obj 746 468 vcf~ 1;
#X obj 779 441 r \$0-ladder-q-mess;
#X obj 779 512 vcf~ 1;
#X obj 812 485 r \$0-ladder-q-mess;
#X obj 812 556 vcf~ 1;
#X obj 845 529 r \$0-ladder-q-mess;
#X obj 845 600 vcf~ 1;
#X obj 878 573 r \$0-ladder-q-mess;
#X obj 696 328 r~ \$0-ladder-cutoff2;
#X obj 729 372 r~ \$0-ladder-cutoff2;
#X obj 762 419 r~ \$0-ladder-cutoff2;
#X obj 795 463 r~ \$0-ladder-cutoff2;
#X obj 828 507 r~ \$0-ladder-cutoff2;
#X obj 861 551 r~ \$0-ladder-cutoff2;
#X obj 691 283 s~ \$0-ladder-cutoff2;
#X obj 878 670 clip~ -1 1;
#X obj 878 624 *~ 2;
#X obj 878 646 *~;
#X obj 501 724 clip~ -1 1;
#X obj 691 261 +~ 10;
#X obj 780 141 *~;
#X obj 929 16 r \$0-ladder-fm-/+-s;
#X obj 929 38 / 127;
#X obj 929 60 * 2;
#X obj 929 82 - 1;
#X obj 929 104 pack 0 50;
#X obj 929 126 line~;
#X obj 1024 97 s \$0-ladder-fm-/+-gui-r;
#X obj 246 70 clip~ -1 1;
#N canvas 100 22 593 735 state-saving-multiple-instances 0;
#X obj 164 26 loadbang;
#X obj 210 479 textfile;
#X msg 491 462 rewind;
#X msg 448 462 bang;
#X obj 88 707 textfile;
#X obj 448 421 t b b;
#X obj 88 355 f;
#X obj 101 578 f;
#X obj 27 402 t b b b;
#X msg 163 573 clear;
#X obj 230 235 outlet;
#X text 272 237 INSTANCE NUMBER;
#X obj 191 200 t f f f;
#X obj 191 164 f \$1;
#X obj 164 59 t b b;
#X obj 27 378 bng 15 250 50 0 empty empty empty 17 7 0 10 -262144 -1
-1;
#X obj 27 234 r SAVE-S;
#X msg 88 436 set \$1 \$2 \$3 \$4;
#X obj 88 398 pack f f f f;
#X obj 210 501 unpack f f f f;
#X obj 100 258 r \$0-ladder-freq-s;
#X obj 210 650 s \$0-ladder-freq-r;
#X msg 101 682 write statesave/\$1-ladder-filter-ss.txt;
#X msg 210 454 read statesave/\$1-ladder-filter-ss.txt;
#X obj 113 296 r \$0-ladder-q-s;
#X obj 244 624 s \$0-ladder-q-r;
#X obj 142 324 r \$0-ladder-drive-s;
#X obj 279 602 s \$0-ladder-drive-r;
#X obj 172 360 r \$0-ladder-fm-/+-s;
#X obj 302 558 s \$0-ladder-fm-/+-r;
#X connect 0 0 14 0;
#X connect 1 0 19 0;
#X connect 2 0 1 0;
#X connect 3 0 1 0;
#X connect 5 0 3 0;
#X connect 5 1 2 0;
#X connect 6 0 18 0;
#X connect 7 0 22 0;
#X connect 8 0 7 0;
#X connect 8 1 6 0;
#X connect 8 2 9 0;
#X connect 9 0 4 0;
#X connect 12 0 7 1;
#X connect 12 1 23 0;
#X connect 12 2 10 0;
#X connect 13 0 12 0;
#X connect 14 0 5 0;
#X connect 14 1 13 0;
#X connect 15 0 8 0;
#X connect 16 0 15 0;
#X connect 17 0 4 0;
#X connect 18 0 17 0;
#X connect 19 0 21 0;
#X connect 19 1 25 0;
#X connect 19 2 27 0;
#X connect 19 3 29 0;
#X connect 20 0 6 1;
#X connect 22 0 4 0;
#X connect 23 0 1 0;
#X connect 24 0 18 1;
#X connect 26 0 18 2;
#X connect 28 0 18 3;
#X restore 94 520 pd state-saving-multiple-instances;
#X obj 94 597 s \$0-instance-num;
#X obj 94 549 makefilename %d;
#X msg 94 574 label \$1;
#N canvas 81 22 1117 745 state-saving-via-preset-manager-module 0;
#X obj 477 349 textfile;
#X msg 797 332 rewind;
#X msg 754 332 bang;
#X obj 243 690 textfile;
#X obj 754 293 t b b;
#X obj 244 356 f;
#X obj 257 579 f;
#X obj 190 474 t b b b;
#X msg 373 621 clear;
#X obj 244 180 delay 5;
#X obj 190 529 delay 10;
#X msg 190 314 bang;
#X obj 190 155 r STORE-S!;
#X obj 477 250 f;
#X obj 450 207 t b b;
#X obj 465 171 t b f;
#X obj 522 268 f \$1;
#X obj 477 295 pack f f;
#X obj 522 218 loadbang;
#X obj 257 609 pack f f;
#X obj 302 562 loadbang;
#X obj 302 584 f \$1;
#X obj 465 148 r preset-manager-scan;
#X obj 272 540 r preset-manager-store-slot;
#X msg 243 490 set \$1 \$2 \$3 \$4;
#X obj 244 423 pack f f f f;
#X obj 477 371 unpack f f f f;
#X msg 256 650 write statesave/\$1-\$2-ladder-filter-ss.txt;
#X msg 477 324 read statesave/\$1-\$2-ladder-filter-ss.txt;
#X obj 259 308 r \$0-ladder-freq-s;
#X obj 477 713 s \$0-ladder-freq-r;
#X obj 267 330 r \$0-ladder-q-s;
#X obj 504 615 s \$0-ladder-q-r;
#X obj 290 352 r \$0-ladder-drive-s;
#X obj 531 518 s \$0-ladder-drive-r;
#X obj 313 374 r \$0-ladder-fm-/+-s;
#X obj 731 435 s \$0-ladder-fm-/+-r;
#N canvas 0 22 1069 747 morph-parameters 0;
#X obj 176 94 inlet;
#X obj 176 236 pack f f;
#X obj 176 261 line;
#X obj 209 117 r preset-manager-morph-s;
#X msg 72 244 stop;
#X obj 72 214 r STOP-MORPH!;
#X obj 209 206 spigot;
#X obj 398 137 t f f;
#X obj 455 154 == 0;
#X obj 221 176 f;
#X floatatom 455 222 5 0 0 0 - - -;
#X obj 398 159 t b f;
#X floatatom 425 192 5 0 0 0 - - -;
#X obj 209 139 t f f;
#X obj 398 102 r parameters-s;
#X obj 176 288 outlet;
#X connect 0 0 1 0;
#X connect 1 0 2 0;
#X connect 2 0 15 0;
#X connect 3 0 13 0;
#X connect 4 0 2 0;
#X connect 5 0 4 0;
#X connect 6 0 1 1;
#X connect 7 0 11 0;
#X connect 7 1 8 0;
#X connect 8 0 10 0;
#X connect 9 0 6 0;
#X connect 10 0 1 1;
#X connect 11 0 9 0;
#X connect 11 1 12 0;
#X connect 12 0 6 1;
#X connect 13 0 6 0;
#X connect 13 1 9 1;
#X connect 14 0 7 0;
#X restore 477 688 pd morph-parameters;
#N canvas 0 22 1069 747 morph-attenuators 0;
#X obj 176 94 inlet;
#X obj 176 236 pack f f;
#X obj 176 261 line;
#X obj 209 117 r preset-manager-morph-s;
#X msg 72 244 stop;
#X obj 72 214 r STOP-MORPH!;
#X obj 209 206 spigot;
#X obj 398 137 t f f;
#X obj 455 154 == 0;
#X obj 221 176 f;
#X floatatom 455 222 5 0 0 0 - - -;
#X obj 398 159 t b f;
#X floatatom 425 192 5 0 0 0 - - -;
#X obj 209 139 t f f;
#X obj 398 102 r attenuators-s;
#X obj 176 288 outlet;
#X connect 0 0 1 0;
#X connect 1 0 2 0;
#X connect 2 0 15 0;
#X connect 3 0 13 0;
#X connect 4 0 2 0;
#X connect 5 0 4 0;
#X connect 6 0 1 1;
#X connect 7 0 11 0;
#X connect 7 1 8 0;
#X connect 8 0 10 0;
#X connect 9 0 6 0;
#X connect 10 0 1 1;
#X connect 11 0 9 0;
#X connect 11 1 12 0;
#X connect 12 0 6 1;
#X connect 13 0 6 0;
#X connect 13 1 9 1;
#X connect 14 0 7 0;
#X restore 731 411 pd morph-attenuators;
#N canvas 0 22 1069 747 morph-parameters 0;
#X obj 176 94 inlet;
#X obj 176 236 pack f f;
#X obj 176 261 line;
#X obj 209 117 r preset-manager-morph-s;
#X msg 72 244 stop;
#X obj 72 214 r STOP-MORPH!;
#X obj 209 206 spigot;
#X obj 398 137 t f f;
#X obj 455 154 == 0;
#X obj 221 176 f;
#X floatatom 455 222 5 0 0 0 - - -;
#X obj 398 159 t b f;
#X floatatom 425 192 5 0 0 0 - - -;
#X obj 209 139 t f f;
#X obj 398 102 r parameters-s;
#X obj 176 288 outlet;
#X connect 0 0 1 0;
#X connect 1 0 2 0;
#X connect 2 0 15 0;
#X connect 3 0 13 0;
#X connect 4 0 2 0;
#X connect 5 0 4 0;
#X connect 6 0 1 1;
#X connect 7 0 11 0;
#X connect 7 1 8 0;
#X connect 8 0 10 0;
#X connect 9 0 6 0;
#X connect 10 0 1 1;
#X connect 11 0 9 0;
#X connect 11 1 12 0;
#X connect 12 0 6 1;
#X connect 13 0 6 0;
#X connect 13 1 9 1;
#X connect 14 0 7 0;
#X restore 504 589 pd morph-parameters;
#N canvas 0 22 1069 747 morph-parameters 0;
#X obj 176 94 inlet;
#X obj 176 236 pack f f;
#X obj 176 261 line;
#X obj 209 117 r preset-manager-morph-s;
#X msg 72 244 stop;
#X obj 72 214 r STOP-MORPH!;
#X obj 209 206 spigot;
#X obj 398 137 t f f;
#X obj 455 154 == 0;
#X obj 221 176 f;
#X floatatom 455 222 5 0 0 0 - - -;
#X obj 398 159 t b f;
#X floatatom 425 192 5 0 0 0 - - -;
#X obj 209 139 t f f;
#X obj 398 102 r parameters-s;
#X obj 176 288 outlet;
#X connect 0 0 1 0;
#X connect 1 0 2 0;
#X connect 2 0 15 0;
#X connect 3 0 13 0;
#X connect 4 0 2 0;
#X connect 5 0 4 0;
#X connect 6 0 1 1;
#X connect 7 0 11 0;
#X connect 7 1 8 0;
#X connect 8 0 10 0;
#X connect 9 0 6 0;
#X connect 10 0 1 1;
#X connect 11 0 9 0;
#X connect 11 1 12 0;
#X connect 12 0 6 1;
#X connect 13 0 6 0;
#X connect 13 1 9 1;
#X connect 14 0 7 0;
#X restore 531 494 pd morph-parameters;
#X connect 0 0 26 0;
#X connect 1 0 0 0;
#X connect 2 0 0 0;
#X connect 4 0 2 0;
#X connect 4 1 1 0;
#X connect 5 0 25 0;
#X connect 6 0 19 0;
#X connect 7 0 10 0;
#X connect 7 1 9 0;
#X connect 7 2 8 0;
#X connect 8 0 3 0;
#X connect 9 0 5 0;
#X connect 10 0 6 0;
#X connect 11 0 7 0;
#X connect 12 0 11 0;
#X connect 13 0 17 0;
#X connect 14 0 4 0;
#X connect 14 1 13 0;
#X connect 15 0 14 0;
#X connect 15 1 13 1;
#X connect 16 0 17 1;
#X connect 17 0 28 0;
#X connect 18 0 16 0;
#X connect 19 0 27 0;
#X connect 20 0 21 0;
#X connect 21 0 19 1;
#X connect 22 0 15 0;
#X connect 23 0 6 1;
#X connect 24 0 3 0;
#X connect 25 0 24 0;
#X connect 26 0 37 0;
#X connect 26 1 39 0;
#X connect 26 2 40 0;
#X connect 26 3 38 0;
#X connect 27 0 3 0;
#X connect 28 0 0 0;
#X connect 29 0 5 1;
#X connect 31 0 25 1;
#X connect 33 0 25 2;
#X connect 35 0 25 3;
#X connect 37 0 30 0;
#X connect 38 0 36 0;
#X connect 39 0 32 0;
#X connect 40 0 34 0;
#X restore 94 494 pd state-saving-via-preset-manager-module;
#X obj 303 27 *~ 8;
#N canvas 297 27 518 295 parameter-nudging-system 0;
#X obj 23 67 clip 0 127;
#X obj 171 67 clip 0 127;
#X obj 317 69 clip 0 127;
#X obj 23 22 r \$0-ladder-freq-s;
#X obj 23 95 s \$0-ladder-freq-r;
#X obj 171 22 r \$0-ladder-q-s;
#X obj 171 95 s \$0-ladder-q-r;
#X obj 317 25 r \$0-ladder-fm-/+-s;
#X obj 317 95 s \$0-ladder-fm-/+-r;
#N canvas 0 22 484 497 nudge-parameters 0;
#X obj 124 234 random;
#X obj 232 335 f;
#X obj 232 368 +;
#X obj 257 166 random 2;
#X obj 124 275 t f f;
#X obj 124 351 t b f;
#X obj 124 297 *;
#X obj 257 188 sel 0 1;
#X msg 257 280 -1;
#X msg 335 280 1;
#X obj 124 149 t b b b;
#X obj 124 74 r NUDGE!;
#X obj 157 193 r NUDGE-RANGE;
#X obj 247 308 inlet;
#X obj 232 397 outlet;
#X obj 124 96 spigot;
#X obj 185 79 r parameters2-s;
#X connect 0 0 4 0;
#X connect 1 0 2 0;
#X connect 2 0 14 0;
#X connect 3 0 7 0;
#X connect 4 0 6 0;
#X connect 5 0 2 0;
#X connect 5 1 2 1;
#X connect 6 0 5 0;
#X connect 7 0 8 0;
#X connect 7 1 9 0;
#X connect 8 0 6 1;
#X connect 9 0 6 1;
#X connect 10 0 0 0;
#X connect 10 1 1 0;
#X connect 10 2 3 0;
#X connect 11 0 15 0;
#X connect 12 0 0 1;
#X connect 13 0 1 1;
#X connect 15 0 10 0;
#X connect 16 0 15 1;
#X restore 23 44 pd nudge-parameters;
#N canvas 0 22 484 497 nudge-attenuators 0;
#X obj 124 234 random;
#X obj 232 335 f;
#X obj 232 368 +;
#X obj 257 166 random 2;
#X obj 124 275 t f f;
#X obj 124 351 t b f;
#X obj 124 297 *;
#X obj 257 188 sel 0 1;
#X msg 257 280 -1;
#X msg 335 280 1;
#X obj 124 149 t b b b;
#X obj 124 71 r NUDGE!;
#X obj 157 193 r NUDGE-RANGE;
#X obj 247 308 inlet;
#X obj 232 397 outlet;
#X obj 124 93 spigot;
#X obj 201 76 r attenuators2-s;
#X connect 0 0 4 0;
#X connect 1 0 2 0;
#X connect 2 0 14 0;
#X connect 3 0 7 0;
#X connect 4 0 6 0;
#X connect 5 0 2 0;
#X connect 5 1 2 1;
#X connect 6 0 5 0;
#X connect 7 0 8 0;
#X connect 7 1 9 0;
#X connect 8 0 6 1;
#X connect 9 0 6 1;
#X connect 10 0 0 0;
#X connect 10 1 1 0;
#X connect 10 2 3 0;
#X connect 11 0 15 0;
#X connect 12 0 0 1;
#X connect 13 0 1 1;
#X connect 15 0 10 0;
#X connect 16 0 15 1;
#X restore 317 47 pd nudge-attenuators;
#N canvas 0 22 484 497 nudge-parameters 0;
#X obj 124 234 random;
#X obj 232 335 f;
#X obj 232 368 +;
#X obj 257 166 random 2;
#X obj 124 275 t f f;
#X obj 124 351 t b f;
#X obj 124 297 *;
#X obj 257 188 sel 0 1;
#X msg 257 280 -1;
#X msg 335 280 1;
#X obj 124 149 t b b b;
#X obj 124 74 r NUDGE!;
#X obj 157 193 r NUDGE-RANGE;
#X obj 247 308 inlet;
#X obj 232 397 outlet;
#X obj 124 96 spigot;
#X obj 185 79 r parameters2-s;
#X connect 0 0 4 0;
#X connect 1 0 2 0;
#X connect 2 0 14 0;
#X connect 3 0 7 0;
#X connect 4 0 6 0;
#X connect 5 0 2 0;
#X connect 5 1 2 1;
#X connect 6 0 5 0;
#X connect 7 0 8 0;
#X connect 7 1 9 0;
#X connect 8 0 6 1;
#X connect 9 0 6 1;
#X connect 10 0 0 0;
#X connect 10 1 1 0;
#X connect 10 2 3 0;
#X connect 11 0 15 0;
#X connect 12 0 0 1;
#X connect 13 0 1 1;
#X connect 15 0 10 0;
#X connect 16 0 15 1;
#X restore 171 45 pd nudge-parameters;
#X connect 0 0 4 0;
#X connect 1 0 6 0;
#X connect 2 0 8 0;
#X connect 3 0 9 0;
#X connect 5 0 11 0;
#X connect 7 0 10 0;
#X connect 9 0 0 0;
#X connect 10 0 2 0;
#X connect 11 0 1 0;
#X restore 94 470 pd parameter-nudging-system;
#X obj 501 687 *~ 2;
#N canvas 632 73 749 752 external-messages 0;
#X floatatom 186 706 5 0 0 0 - - -;
#X obj 185 328 spigot;
#X obj 218 288 tgl 15 0 empty empty empty 17 7 0 10 -262144 -1 -1 0
1;
#X obj 254 272 ==;
#X obj 269 248 f \$1;
#X obj 269 224 loadbang;
#X msg 185 202 \$1 \$2;
#X msg 185 156 symbol \$1;
#X obj 185 180 pack s f;
#X obj 186 685 f;
#X obj 186 633 t b f;
#X obj 186 656 spigot;
#X obj 185 62 unpack s f f;
#X symbolatom 185 94 10 0 0 0 - - -;
#X obj 218 308 t f f;
#X obj 245 332 s \$0-msg-spigot;
#X obj 234 640 r \$0-msg-spigot;
#X floatatom 223 594 5 0 0 0 - - -;
#X obj 223 573 f;
#X obj 223 521 t b f;
#X obj 223 544 spigot;
#X obj 271 528 r \$0-msg-spigot;
#X floatatom 387 639 5 0 0 0 - - -;
#X obj 387 618 f;
#X obj 387 566 t b f;
#X obj 387 589 spigot;
#X obj 435 573 r \$0-msg-spigot;
#X obj 185 14 r ladder-filter;
#X obj 185 380 route FREQ Q FM-/+;
#X obj 186 726 s \$0-ladder-freq-r;
#X obj 223 614 s \$0-ladder-q-r;
#X obj 387 659 s \$0-ladder-fm-/+-r;
#X connect 0 0 29 0;
#X connect 1 0 28 0;
#X connect 2 0 14 0;
#X connect 3 0 2 0;
#X connect 4 0 3 1;
#X connect 5 0 4 0;
#X connect 6 0 1 0;
#X connect 7 0 8 0;
#X connect 8 0 6 0;
#X connect 9 0 0 0;
#X connect 10 0 11 0;
#X connect 10 1 9 1;
#X connect 11 0 9 0;
#X connect 12 0 13 0;
#X connect 12 1 8 1;
#X connect 12 2 3 0;
#X connect 13 0 7 0;
#X connect 14 0 1 1;
#X connect 14 1 15 0;
#X connect 16 0 11 1;
#X connect 17 0 30 0;
#X connect 18 0 17 0;
#X connect 19 0 20 0;
#X connect 19 1 18 1;
#X connect 20 0 18 0;
#X connect 21 0 20 1;
#X connect 22 0 31 0;
#X connect 23 0 22 0;
#X connect 24 0 25 0;
#X connect 24 1 23 1;
#X connect 25 0 23 0;
#X connect 26 0 25 1;
#X connect 27 0 12 0;
#X connect 28 0 10 0;
#X connect 28 1 19 0;
#X connect 28 2 24 0;
#X restore 94 443 pd external-messages;
#X connect 0 0 1 0;
#X connect 1 0 3 0;
#X connect 2 0 0 0;
#X connect 3 0 52 0;
#X connect 4 0 13 0;
#X connect 5 0 6 0;
#X connect 6 0 21 1;
#X connect 7 0 5 0;
#X connect 8 0 94 0;
#X connect 9 0 11 0;
#X connect 9 0 77 0;
#X connect 10 0 15 0;
#X connect 12 0 92 0;
#X connect 13 0 7 0;
#X connect 13 1 10 0;
#X connect 15 0 16 0;
#X connect 17 0 44 0;
#X connect 18 0 78 0;
#X connect 19 0 4 0;
#X connect 20 1 26 0;
#X connect 21 0 22 1;
#X connect 22 0 20 0;
#X connect 22 0 54 0;
#X connect 23 0 20 1;
#X connect 24 0 21 0;
#X connect 25 0 20 2;
#X connect 26 1 29 0;
#X connect 27 0 26 1;
#X connect 28 0 26 2;
#X connect 29 1 32 0;
#X connect 30 0 29 1;
#X connect 31 0 29 2;
#X connect 32 1 35 0;
#X connect 33 0 32 1;
#X connect 34 0 32 2;
#X connect 35 1 38 0;
#X connect 36 0 35 1;
#X connect 37 0 35 2;
#X connect 38 1 42 0;
#X connect 38 1 43 0;
#X connect 39 0 38 1;
#X connect 40 0 38 2;
#X connect 42 0 53 0;
#X connect 43 0 49 0;
#X connect 44 0 2 0;
#X connect 44 1 45 0;
#X connect 45 0 46 0;
#X connect 46 0 47 0;
#X connect 47 0 48 0;
#X connect 48 0 50 0;
#X connect 49 0 8 0;
#X connect 50 0 51 0;
#X connect 51 0 49 1;
#X connect 52 0 9 0;
#X connect 53 0 41 0;
#X connect 54 1 56 0;
#X connect 55 0 54 2;
#X connect 56 1 58 0;
#X connect 57 0 56 2;
#X connect 58 1 60 0;
#X connect 59 0 58 2;
#X connect 60 1 62 0;
#X connect 61 0 60 2;
#X connect 62 1 64 0;
#X connect 63 0 62 2;
#X connect 64 1 74 0;
#X connect 65 0 64 2;
#X connect 66 0 54 1;
#X connect 67 0 56 1;
#X connect 68 0 58 1;
#X connect 69 0 60 1;
#X connect 70 0 62 1;
#X connect 71 0 64 1;
#X connect 73 0 94 0;
#X connect 74 0 75 0;
#X connect 75 0 73 0;
#X connect 76 0 14 0;
#X connect 77 0 72 0;
#X connect 78 0 3 1;
#X connect 79 0 80 0;
#X connect 80 0 81 0;
#X connect 81 0 82 0;
#X connect 82 0 83 0;
#X connect 82 0 85 0;
#X connect 83 0 84 0;
#X connect 84 0 78 1;
#X connect 86 0 22 0;
#X connect 87 0 89 0;
#X connect 89 0 90 0;
#X connect 90 0 88 0;
#X connect 92 0 86 0;
#X connect 94 0 76 0;
#X restore 417 408 pd filter;
#X obj 147 654 hsl 128 15 0 127 0 1 filterFM \$0-ladder-fm-/+-r FM-/+
-2 -8 0 10 -159808 -1 -1 9400 1;
#X obj 147 625 hsl 128 15 0 127 0 1 filterQ \$0-ladder-q-r Q -2 -8
0 10 -159808 -1 -1 8200 1;
#X obj 147 596 hsl 128 15 1.27 127 1 1 filterFreq \$0-ladder-freq-r
FREQ -2 -8 0 10 -159808 -1 -1 5300 1;
#X floatatom 392 375 5 0 0 0 - #0-ladder-fm-/+-gui-r #0-ladder-fm-/+-gui-s
;
#X obj 581 389 r onOff;
#X obj 518 521 *~;
#X obj 391 408 *~;
#X obj 144 510 tgl 15 0 onOff empty onOff 17 7 0 10 -159808 -1 -1 1
1;
#X obj 58 163 r oscilator;
#X obj 607 471 r volume;
#X obj 400 202 s \$0-ladder-freq-s;
#X obj 400 170 r filterFreq;
#X obj 400 227 r filterQ;
#X obj 400 259 s \$0-ladder-q-s;
#X obj 399 287 r filterFM;
#X obj 399 319 s \$0-ladder-fm-/+-s;
#X obj 214 165 r phasor;
#X connect 1 0 8 0;
#X connect 3 0 2 0;
#X connect 5 0 3 0;
#X connect 7 0 9 0;
#X connect 8 0 10 0;
#X connect 9 0 10 1;
#X connect 10 0 23 0;
#X connect 13 0 14 0;
#X connect 14 0 15 0;
#X connect 16 0 22 0;
#X connect 21 0 23 1;
#X connect 22 0 11 0;
#X connect 22 0 11 1;
#X connect 22 0 2 0;
#X connect 22 0 13 0;
#X connect 23 0 16 0;
#X connect 25 0 1 0;
#X connect 26 0 22 1;
#X connect 28 0 27 0;
#X connect 29 0 30 0;
#X connect 31 0 32 0;
#X connect 33 0 7 0;
