#N canvas 434 -855 1125 697 12;
#X obj 55 22 osc~ 440;
#X obj 55 69 *~ 0, f 18;
#X obj 100 184 1 - $f1, f 8;
#X obj 54 213 *~ 0.5, f 7;
#X obj 54 252 dac~, f 11;
#X obj 178 30 r onOff;
#X obj 157 99 r xFade;
#X obj 173 185 *~ 0.5;
#X connect 0 0 1 0;
#X connect 1 0 3 0;
#X connect 1 0 7 0;
#X connect 2 0 3 1;
#X connect 3 0 4 0;
#X connect 5 0 1 1;
#X connect 6 0 2 0;
#X connect 6 0 7 1;
#X connect 7 0 4 1;
